# xmcd CD database file
#
# Track frame offsets:
#	150
#	37027
#	56977
#	73707
#	95670
#	112917
#	130425
#	147652
#	166927
#	190815
#	203382
#	222197
#	253872
#
# Disc length: 3868 seconds
#
# Revision: 1
# Processed by: cddbd v1.4PL0 Copyright (c) Steve Scherf et al.
# Submitted via: CDex 1.40Release
#
DISCID=ca0f1a0d
DTITLE=Tolo Marton - Still close to you
DYEAR=1998
DGENRE=Blues
TTITLE0=Alpine valley
TTITLE1=Plains of joy
TTITLE2=Waitin' guitar
TTITLE3=Rainy day
TTITLE4=See what you've done to me
TTITLE5=Music lady
TTITLE6=Back to my youth
TTITLE7=Walk on past
TTITLE8=Certitude of laundromats
TTITLE9=Pinto Creek
TTITLE10=My place is close to you
TTITLE11=I don't wanna be alone
TTITLE12=Hey Baby (New Rising Sun) live
EXTD=YEAR: 1998 ID3G: 0
EXTT0=
EXTT1=
EXTT2=
EXTT3=
EXTT4=
EXTT5=
EXTT6=
EXTT7=
EXTT8=
EXTT9=
EXTT10=
EXTT11=
EXTT12=
PLAYORDER=
